<?xml version="1.0" encoding="UTF-8" standalone="no"?>
<!-- Created with Inkscape (http://www.inkscape.org/) -->

<svg
   width="128"
   height="128"
   viewBox="0 0 128 128"
   version="1.1"
   id="svg1"
   inkscape:version="1.3.2 (091e20e, 2023-11-25, custom)"
   sodipodi:docname="enemy-icon.svg"
   xmlns:inkscape="http://www.inkscape.org/namespaces/inkscape"
   xmlns:sodipodi="http://sodipodi.sourceforge.net/DTD/sodipodi-0.dtd"
   xmlns="http://www.w3.org/2000/svg"
   xmlns:svg="http://www.w3.org/2000/svg">
  <sodipodi:namedview
     id="namedview1"
     pagecolor="#ffffff"
     bordercolor="#000000"
     borderopacity="0.25"
     inkscape:showpageshadow="2"
     inkscape:pageopacity="0.0"
     inkscape:pagecheckerboard="0"
     inkscape:deskcolor="#d1d1d1"
     inkscape:document-units="px"
     inkscape:zoom="4.8613591"
     inkscape:cx="86.704148"
     inkscape:cy="60.374063"
     inkscape:window-width="1920"
     inkscape:window-height="1017"
     inkscape:window-x="-8"
     inkscape:window-y="-8"
     inkscape:window-maximized="1"
     inkscape:current-layer="layer1" />
  <defs
     id="defs1">
    <inkscape:path-effect
       effect="mirror_symmetry"
       start_point="58.622667,82.220004"
       end_point="58.622667,102.20541"
       center_point="58.622667,92.212707"
       id="path-effect4"
       is_visible="true"
       lpeversion="1.2"
       lpesatellites=""
       mode="free"
       discard_orig_path="false"
       fuse_paths="true"
       oposite_fuse="false"
       split_items="false"
       split_open="false"
       link_styles="false" />
  </defs>
  <g
     inkscape:label="Layer 1"
     inkscape:groupmode="layer"
     id="layer1"
     transform="translate(3.867709,3.2118561)">
    <g
       id="g4"
       transform="translate(-0.38412499,1.9826532)">
      <path
         id="rect1"
         style="fill:#000000;fill-opacity:1;stroke:#000000;stroke-width:1.96722;stroke-linecap:square"
         d="m 60.768251,18.262727 c 29.461219,-2e-6 59.999999,20.281523 59.016409,65.793117 -0.42341,19.591506 -15.7759,35.371976 -35.371973,35.371976 H 37.12383 C 17.527758,119.42782 2.1595808,103.64768 1.7518588,84.055844 0.76825054,36.791569 31.307036,18.262729 60.768251,18.262727 Z"
         sodipodi:nodetypes="assssa" />
      <path
         style="fill:#000000;fill-opacity:1;stroke:#000000;stroke-width:2;stroke-linecap:butt;stroke-linejoin:miter;stroke-miterlimit:4.4"
         d="M 6.1365221,54.584079 C -2.4115705,39.798238 -4.4538232,10.084839 0.76825054,0.41140758 2.4610864,10.601158 15.104473,28.379251 28.78823,26.678076"
         id="path1"
         sodipodi:nodetypes="ccc" />
      <path
         style="fill:#000000;fill-opacity:1;stroke:#000000;stroke-width:2;stroke-linecap:butt;stroke-linejoin:miter;stroke-miterlimit:4.4"
         d="M 114.57716,54.58408 C 123.12525,39.798239 125.37321,9.6734312 120.76825,0.41140758 119.07541,10.601158 105.60921,28.379252 91.925457,26.678077"
         id="path2"
         sodipodi:nodetypes="ccc" />
      <path
         style="fill:#ffffff;fill-opacity:1;stroke:#000000;stroke-width:3.90118;stroke-linecap:square;stroke-linejoin:miter;stroke-miterlimit:4.4"
         d="m 29.343175,70.300241 c 16.421876,9.706515 27.938014,-6.898524 27.938014,-6.898524 L 22.144558,43.115574 c 0,0 -9.223259,17.478151 7.198617,27.184667 z"
         id="path3"
         sodipodi:nodetypes="zccz" />
      <path
         style="fill:#ffffff;fill-opacity:1;stroke:#000000;stroke-width:3.90118;stroke-linecap:square;stroke-linejoin:miter;stroke-miterlimit:4.4"
         d="m 89.963677,70.651847 c 16.617023,-9.368504 7.99471,-27.644292 7.99471,-27.644292 L 62.821756,63.293699 c 0,0 10.524893,16.726652 27.141921,7.358148 z"
         id="path3-9"
         sodipodi:nodetypes="zccz" />
      <path
         style="fill:#ffffff;fill-opacity:1;stroke:#000000;stroke-width:3.01977;stroke-linecap:square;stroke-linejoin:miter;stroke-miterlimit:4.4"
         d="M 58.622667,84.635822 45.418929,96.09858 33.47379,86.58364 18.333796,102.47906 33.756072,95.611059 45.544251,106.71451 58.622667,96.05605 71.701083,106.71451 83.489262,95.611059 98.911538,102.47906 83.771544,86.58364 71.826405,96.09858 Z"
         id="path4"
         inkscape:path-effect="#path-effect4"
         inkscape:original-d="M 58.622667,84.635822 45.418929,96.09858 33.47379,86.58364 18.333796,102.47906 33.756072,95.611059 45.544251,106.71451 58.622667,96.05605"
         sodipodi:nodetypes="ccccccc"
         transform="matrix(1.1755775,0,0,1.1755775,-9.5245695,-16.387606)" />
    </g>
  </g>
</svg>
