<?xml version="1.0" encoding="UTF-8" standalone="no"?>
<!-- Created with Inkscape (http://www.inkscape.org/) -->

<svg
   width="128"
   height="128"
   viewBox="0 0 128 128"
   version="1.1"
   id="svg1"
   inkscape:version="1.3.2 (091e20e, 2023-11-25, custom)"
   sodipodi:docname="unknown-icon.svg"
   xmlns:inkscape="http://www.inkscape.org/namespaces/inkscape"
   xmlns:sodipodi="http://sodipodi.sourceforge.net/DTD/sodipodi-0.dtd"
   xmlns="http://www.w3.org/2000/svg"
   xmlns:svg="http://www.w3.org/2000/svg">
  <sodipodi:namedview
     id="namedview1"
     pagecolor="#ffffff"
     bordercolor="#000000"
     borderopacity="0.25"
     inkscape:showpageshadow="2"
     inkscape:pageopacity="0.0"
     inkscape:pagecheckerboard="0"
     inkscape:deskcolor="#d1d1d1"
     inkscape:document-units="px"
     inkscape:zoom="2.4306796"
     inkscape:cx="85.367073"
     inkscape:cy="54.100097"
     inkscape:window-width="1920"
     inkscape:window-height="1017"
     inkscape:window-x="-8"
     inkscape:window-y="-8"
     inkscape:window-maximized="1"
     inkscape:current-layer="layer1" />
  <defs
     id="defs1">
    <inkscape:path-effect
       effect="mirror_symmetry"
       start_point="58.622667,82.220004"
       end_point="58.622667,102.20541"
       center_point="58.622667,92.212707"
       id="path-effect4"
       is_visible="true"
       lpeversion="1.2"
       lpesatellites=""
       mode="free"
       discard_orig_path="false"
       fuse_paths="true"
       oposite_fuse="false"
       split_items="false"
       split_open="false"
       link_styles="false" />
  </defs>
  <g
     inkscape:label="Layer 1"
     inkscape:groupmode="layer"
     id="layer1"
     transform="translate(3.867709,3.2118561)">
    <path
       style="font-size:145.287px;font-family:'Aldo the Apache';-inkscape-font-specification:'Aldo the Apache';text-align:center;text-anchor:middle;stroke-width:19.812;stroke-miterlimit:4.4"
       d="m 54.905051,41.922015 c -3.820734,3.820734 -14.741071,6.044618 -20.785689,0 -6.044618,-6.044618 -8.268502,-22.236093 0,-30.504596 8.268502,-8.2685018 30.276887,-3.6743739 39.655973,0 9.379086,3.674375 11.938143,6.533829 15.252298,14.117243 3.314155,7.583414 3.39764,20.646545 0,28.872954 -3.39764,8.226409 -14.941018,11.645723 -17.309584,17.380526 -2.368566,5.734803 3.778931,8.919493 0,12.698424 -3.778931,3.778931 -14.902381,4.46449 -19.366871,0 -4.46449,-4.46449 -2.554298,-12.169836 0,-18.51558 2.554298,-6.345744 12.995309,-9.757139 15.607002,-16.24547 2.611693,-6.488331 3.829094,-15.608718 0,-19.437812 -3.829094,-3.829094 -10.143686,-2.909443 -13.053129,0 -2.909443,2.909443 3.820734,7.813577 0,11.634311 z m -0.177725,69.196115 c -4.698582,-4.69858 -4.698582,-11.121735 0,-15.820317 4.899234,-4.899234 10.74386,-4.899234 15.643094,0 4.698582,4.698582 4.698582,11.121737 0,15.820317 -4.899234,4.89923 -10.74386,4.89923 -15.643094,0 z"
       id="text9"
       aria-label="?"
       sodipodi:nodetypes="zzzzzzzzzzzzzzsssss" />
  </g>
</svg>
